Coordinates
version=1
nRows=19
nColumns=63
inDegrees=yes

Units are S.I. units (second, meters, Newtons, ...)
If the header above contains a line with 'inDegrees', this indicates whether rotational values are in degrees (yes) or radians (no).

endheader
time	pelvis_tilt	pelvis_list	pelvis_rotation	pelvis_tx	pelvis_ty	pelvis_tz	hip_flexion_r	hip_adduction_r	hip_rotation_r	knee_angle_r	knee_angle_r_beta	ankle_angle_r	subtalar_angle_r	mtp_angle_r	hip_flexion_l	hip_adduction_l	hip_rotation_l	knee_angle_l	knee_angle_l_beta	ankle_angle_l	subtalar_angle_l	mtp_angle_l	L5_S1_Flex_Ext	L5_S1_Lat_Bending	L5_S1_axial_rotation	L4_L5_Flex_Ext	L4_L5_Lat_Bending	L4_L5_axial_rotation	L3_L4_Flex_Ext	L3_L4_Lat_Bending	L3_L4_axial_rotation	L2_L3_Flex_Ext	L2_L3_Lat_Bending	L2_L3_axial_rotation	L1_L2_Flex_Ext	L1_L2_Lat_Bending	L1_L2_axial_rotation	L1_T12_Flex_Ext	L1_T12_Lat_Bending	L1_T12_axial_rotation	Abs_r3	Abs_r2	Abs_r1	Abs_t1	Abs_t2	neck_flexion	neck_bending	neck_rotation	arm_flex_r	arm_add_r	arm_rot_r	elbow_flex_r	pro_sup_r	wrist_flex_r	wrist_dev_r	arm_flex_l	arm_add_l	arm_rot_l	elbow_flex_l	pro_sup_l	wrist_flex_l	wrist_dev_l
1.675000	-1.707874	-5.631438	88.909087	-0.114564	0.767171	0.689319	9.435870	-6.368575	-14.009796	17.745182	0.309712	34.921898	15.898475	0.000000	9.661827	2.445715	-9.306722	14.006401	0.244458	35.576471	12.678690	0.000000	-0.215273	-0.348230	1.075661	-0.399783	-0.463147	1.142890	-0.353672	-0.846688	1.142890	-0.246035	-0.846688	0.941203	-0.199902	-0.710112	0.873975	-0.123007	-0.539409	0.806746	-1.537673	-3.939253	5.982504	0.000000	0.000000	19.693683	-1.499960	2.876175	-0.840664	-15.077431	29.554062	26.260178	70.572124	-7.495176	1.328943	7.722688	-15.929789	88.325367	13.841910	32.000889	-7.088882	-9.223586
1.700000	-1.466127	-5.572260	88.987109	-0.114837	0.767132	0.689801	9.492566	-6.152123	-13.954037	17.863879	0.311784	34.865878	15.733057	0.000000	9.666931	2.186807	-9.419778	14.131949	0.246649	35.815780	12.946269	0.000000	-0.227872	-0.321993	1.102700	-0.423181	-0.428250	1.171618	-0.374371	-0.782893	1.171618	-0.260435	-0.782893	0.964862	-0.211602	-0.656608	0.895944	-0.130206	-0.498767	0.827025	-1.627667	-3.642447	6.132885	0.000000	0.000000	19.158611	-2.408498	3.425200	-0.924908	-15.292860	30.226013	25.823029	71.101656	-7.877980	0.404849	7.918098	-15.695350	88.694803	13.624293	31.621058	-6.883213	-9.104183
1.725000	-1.215192	-5.522650	89.146628	-0.115249	0.767101	0.690340	9.537479	-5.948751	-14.036813	17.974913	0.313721	34.815945	15.638023	0.000000	9.699776	1.937687	-9.412887	14.282619	0.249279	36.032968	13.151681	0.000000	-0.239401	-0.294519	1.120675	-0.444591	-0.391711	1.190717	-0.393312	-0.716094	1.190717	-0.273611	-0.716094	0.980591	-0.222308	-0.600584	0.910549	-0.136794	-0.456210	0.840506	-1.710016	-3.331662	6.232859	0.000000	0.000000	18.724962	-3.319852	3.850222	-1.035614	-15.553597	31.018111	25.424185	71.443431	-8.305377	-0.634955	8.128376	-15.449387	89.071318	13.437050	31.293086	-6.780294	-9.191513
1.750000	-0.968315	-5.483441	89.310032	-0.115690	0.767081	0.690911	9.592058	-5.750495	-14.110490	18.084947	0.315642	34.765667	15.531012	0.000000	9.754727	1.684928	-9.483039	14.454884	0.252285	36.229797	13.435604	0.000000	-0.248487	-0.266403	1.143526	-0.461465	-0.354316	1.214997	-0.408239	-0.647733	1.214997	-0.283996	-0.647733	1.000586	-0.230745	-0.543249	0.929115	-0.141986	-0.412659	0.857645	-1.774918	-3.013606	6.359950	0.000000	0.000000	18.439413	-4.173471	4.201614	-1.240506	-15.793263	31.401914	25.127234	72.507877	-8.690242	-1.539914	8.358597	-15.199798	89.484307	13.295267	31.008369	-6.746190	-9.440984
1.775000	-0.739172	-5.453568	89.523745	-0.116212	0.767092	0.691502	9.643561	-5.583984	-14.255431	18.197157	0.317600	34.716268	15.450734	0.000000	9.829218	1.472067	-9.419945	14.631440	0.255367	36.351676	13.591633	0.000000	-0.254185	-0.239593	1.155688	-0.472046	-0.318659	1.227919	-0.417600	-0.582547	1.227919	-0.290508	-0.582547	1.011227	-0.236036	-0.488579	0.938997	-0.145241	-0.371130	0.866766	-1.815616	-2.710328	6.427593	0.000000	0.000000	18.328813	-4.862844	4.541191	-1.466042	-16.043637	31.778726	24.896248	73.665730	-9.107372	-2.377453	8.573514	-14.971218	89.824393	13.218990	30.822760	-6.804359	-9.881869
1.800000	-0.513668	-5.421096	89.725910	-0.116750	0.767152	0.692015	9.670727	-5.419831	-14.422362	18.282350	0.319087	34.662043	15.416768	0.000000	9.884073	1.268764	-9.335189	14.776847	0.257905	36.417211	13.691449	0.000000	-0.255615	-0.211474	1.167719	-0.474702	-0.281260	1.240702	-0.419950	-0.514177	1.240702	-0.292142	-0.514177	1.021754	-0.237364	-0.431237	0.948772	-0.146058	-0.327573	0.875789	-1.825831	-2.392234	6.494504	0.000000	0.000000	18.397035	-5.497909	4.814815	-1.727007	-16.305719	32.102202	24.754923	74.618748	-9.541069	-3.132862	8.731534	-14.760807	89.923980	13.227436	30.882692	-6.987345	-10.467322
1.825000	-0.309686	-5.403410	89.984954	-0.117349	0.767232	0.692500	9.688218	-5.281493	-14.620376	18.350571	0.320278	34.608643	15.359897	0.000000	9.963089	1.106212	-9.127975	14.927010	0.260525	36.410428	13.686402	0.000000	-0.252268	-0.185490	1.160498	-0.468487	-0.246702	1.233029	-0.414451	-0.451001	1.233029	-0.288317	-0.451001	1.015436	-0.234256	-0.378251	0.942905	-0.144146	-0.287324	0.870374	-1.801927	-2.098301	6.454343	0.000000	0.000000	18.674041	-5.912549	5.089530	-1.996154	-16.536324	32.242210	24.722491	75.609366	-9.959554	-3.687521	8.845906	-14.585041	89.955718	13.297918	30.967155	-7.250851	-11.124716
1.850000	-0.151693	-5.402022	90.309147	-0.117998	0.767306	0.692958	9.707819	-5.204593	-14.891530	18.431963	0.321698	34.576941	15.314499	0.000000	10.071653	1.007809	-8.812517	15.091125	0.263390	36.346933	13.613392	0.000000	-0.245119	-0.166023	1.131970	-0.455210	-0.220810	1.202718	-0.402706	-0.403667	1.202718	-0.280146	-0.403667	0.990473	-0.227617	-0.338553	0.919725	-0.140061	-0.257169	0.848977	-1.750860	-1.878080	6.295675	0.000000	0.000000	19.151769	-6.003034	5.321420	-2.255177	-16.712881	32.197640	24.794926	76.665529	-10.332501	-4.013801	8.918083	-14.457508	89.963917	13.401832	31.032733	-7.560226	-11.830254
1.875000	-0.017875	-5.412344	90.643821	-0.118661	0.767340	0.693343	9.717306	-5.153296	-15.209135	18.491002	0.322729	34.559770	15.303071	0.000000	10.182826	0.946572	-8.415861	15.228046	0.265780	36.249507	13.459683	0.000000	-0.234803	-0.148619	1.086968	-0.436053	-0.197663	1.154904	-0.385758	-0.361352	1.154904	-0.268356	-0.361352	0.951097	-0.218038	-0.303063	0.883162	-0.134167	-0.230211	0.815226	-1.677175	-1.681206	6.045391	0.000000	0.000000	19.764473	-5.884059	5.547276	-2.474322	-16.859105	32.038087	24.947349	77.811528	-10.705486	-4.177899	8.920909	-14.345172	89.898620	13.506625	31.104612	-7.920277	-12.585231
1.900000	0.052628	-5.449697	91.019965	-0.119304	0.767278	0.693725	9.747401	-5.175445	-15.578404	18.567210	0.324059	34.579274	15.299197	0.000000	10.336659	0.962270	-7.934262	15.380147	0.268434	36.131593	13.238002	0.000000	-0.222205	-0.140211	1.018096	-0.412657	-0.186481	1.081727	-0.365060	-0.340910	1.081727	-0.253958	-0.340910	0.890834	-0.206339	-0.285919	0.827203	-0.126968	-0.217187	0.763572	-1.587187	-1.586099	5.662346	0.000000	0.000000	20.447248	-5.449666	5.736543	-2.628431	-16.929819	31.744174	25.160247	78.974229	-11.039268	-4.173369	8.889753	-14.299438	89.775311	13.638986	31.194674	-8.293491	-13.303868
1.925000	0.082054	-5.514497	91.395840	-0.119866	0.767096	0.694110	9.803685	-5.234415	-15.940718	18.651952	0.325538	34.626371	15.278248	0.000000	10.533840	1.005008	-7.544146	15.558009	0.271538	36.044154	13.128097	0.000000	-0.208466	-0.138123	0.930351	-0.387142	-0.183703	0.988498	-0.342488	-0.335832	0.988498	-0.238256	-0.335832	0.814057	-0.193581	-0.281660	0.755910	-0.119117	-0.213952	0.697763	-1.489050	-1.562473	5.174331	0.000000	0.000000	21.142247	-4.718875	5.895723	-2.690034	-16.961690	31.457190	25.427886	79.928125	-11.237343	-4.085588	8.849855	-14.284298	89.731283	13.729761	31.260487	-8.627533	-13.971840
1.950000	0.061530	-5.608123	91.758790	-0.120341	0.766783	0.694481	9.892052	-5.341713	-16.304827	18.752746	0.327297	34.709696	15.263863	0.000000	10.768414	1.094142	-7.166719	15.744274	0.274789	35.981909	13.018766	0.000000	-0.194105	-0.143005	0.824224	-0.360472	-0.190197	0.875738	-0.318895	-0.347703	0.875738	-0.221843	-0.347703	0.721196	-0.180246	-0.291616	0.669682	-0.110912	-0.221515	0.618168	-1.386473	-1.617704	4.584086	0.000000	0.000000	21.825140	-3.735578	6.040066	-2.660815	-16.937027	31.096192	25.748589	80.728536	-11.294752	-3.899390	8.813061	-14.298617	89.759859	13.778674	31.357990	-8.929629	-14.547888
1.975000	-0.008825	-5.739617	92.138905	-0.120814	0.766351	0.694879	10.029137	-5.506532	-16.670278	18.891385	0.329717	34.825409	15.210588	0.000000	11.058300	1.238568	-6.784162	15.950896	0.278396	35.933620	12.925972	0.000000	-0.178490	-0.153750	0.699456	-0.331474	-0.204487	0.743172	-0.293242	-0.373827	0.743172	-0.203997	-0.373827	0.612024	-0.165746	-0.313526	0.568308	-0.101989	-0.238158	0.524592	-1.274938	-1.739247	3.890166	0.000000	0.000000	22.483401	-2.557904	6.187530	-2.539103	-16.868449	30.689801	26.089492	81.399381	-11.256392	-3.678574	8.794712	-14.307203	89.850031	13.760638	31.451707	-9.212863	-15.006571
2.000000	-0.104735	-5.886911	92.512325	-0.121223	0.765861	0.695200	10.168749	-5.689742	-17.038201	19.017853	0.331924	34.945728	15.155044	0.000000	11.361725	1.404161	-6.402903	16.157655	0.282004	35.894554	12.848180	0.000000	-0.161465	-0.167564	0.561511	-0.299857	-0.222861	0.596606	-0.265271	-0.407416	0.596606	-0.184539	-0.407416	0.491322	-0.149937	-0.341698	0.456228	-0.092261	-0.259557	0.421133	-1.153329	-1.895523	3.122957	0.000000	0.000000	23.107629	-1.232154	6.366617	-2.337240	-16.772098	30.304758	26.440752	81.930971	-11.112592	-3.372201	8.791208	-14.353045	90.019624	13.762683	31.524539	-9.457366	-15.378816
2.025000	-0.226672	-6.016271	92.808037	-0.121520	0.765400	0.695412	10.288361	-5.881175	-17.334182	19.132227	0.333920	35.061935	15.097449	0.000000	11.615639	1.584299	-6.084006	16.322180	0.284876	35.850911	12.765460	0.000000	-0.146653	-0.184029	0.437225	-0.272350	-0.244759	0.464551	-0.240937	-0.447449	0.464551	-0.167610	-0.447449	0.382571	-0.136182	-0.375272	0.355245	-0.083798	-0.285061	0.327918	-1.047530	-2.081775	2.431712	0.000000	0.000000	23.683944	0.133954	6.482441	-2.108001	-16.666669	29.901538	26.825653	82.275010	-10.864519	-2.931091	8.836162	-14.403902	90.264677	13.766636	31.614121	-9.605372	-15.549631
2.050000	-0.350636	-6.136273	93.071680	-0.121786	0.765011	0.695524	10.381187	-6.061277	-17.603036	19.209799	0.335274	35.160633	15.037024	0.000000	11.838538	1.765629	-5.757979	16.456147	0.287214	35.803239	12.652379	0.000000	-0.132075	-0.199573	0.326376	-0.245276	-0.265433	0.346774	-0.216986	-0.485243	0.346774	-0.150948	-0.485243	0.285579	-0.122645	-0.406970	0.265180	-0.075468	-0.309139	0.244782	-0.943398	-2.257614	1.815205	0.000000	0.000000	24.204537	1.519170	6.579230	-1.870531	-16.558809	29.475880	27.209772	82.385777	-10.538664	-2.330076	9.162399	-14.372306	92.478558	13.504460	29.701059	-9.646652	-16.022090
2.075000	-0.508675	-6.239200	93.256348	-0.121882	0.764691	0.695526	10.465256	-6.253163	-17.778712	19.280528	0.336509	35.261400	14.961292	0.000000	12.003513	1.962428	-5.533597	16.528769	0.288481	35.751015	12.589973	0.000000	-0.120278	-0.219733	0.237219	-0.223368	-0.292245	0.252045	-0.197605	-0.534259	0.252045	-0.137466	-0.534259	0.207567	-0.111690	-0.448079	0.192741	-0.068727	-0.340366	0.177914	-0.859133	-2.485663	1.319342	0.000000	0.000000	24.705442	2.848009	6.614107	-1.630046	-16.420374	29.018962	27.593329	82.318717	-10.111221	-1.558828	9.390192	-14.409118	93.596983	13.447485	28.828472	-9.606918	-16.104253
2.100000	-0.675606	-6.322737	93.361830	-0.121824	0.764444	0.695416	10.530248	-6.429388	-17.864425	19.320583	0.337208	35.349011	14.893574	0.000000	12.112121	2.148936	-5.394088	16.549103	0.288836	35.710704	12.562218	0.000000	-0.110762	-0.241147	0.177002	-0.205697	-0.320726	0.188064	-0.181972	-0.586326	0.188064	-0.126590	-0.586326	0.154877	-0.102854	-0.491748	0.143814	-0.063290	-0.373537	0.132751	-0.791165	-2.727908	0.984431	0.000000	0.000000	25.174024	3.970119	6.500168	-1.408626	-16.268550	28.584525	27.931960	82.164132	-9.681362	-0.772260	9.542773	-14.492110	93.804541	13.580564	28.763648	-9.509125	-15.852930
2.125000	-0.860797	-6.380152	93.394598	-0.121576	0.764272	0.695250	10.581564	-6.601945	-17.873932	19.352904	0.337772	35.441967	14.827905	0.000000	12.168089	2.330881	-5.356822	16.533898	0.288571	35.672558	12.573283	0.000000	-0.105682	-0.266373	0.149124	-0.196263	-0.354276	0.158444	-0.173626	-0.647660	0.158444	-0.120784	-0.647660	0.130483	-0.098137	-0.543188	0.121163	-0.060387	-0.412612	0.111843	-0.754879	-3.013267	0.829381	0.000000	0.000000	25.599962	4.945448	6.226043	-1.208278	-16.091631	28.211768	28.216873	81.837063	-9.229449	0.068725	9.645231	-14.633785	93.203537	13.882960	29.481539	-9.331079	-15.349427
